<svg xmlns="http://www.w3.org/2000/svg" viewBox="0 0 380.721 380.721" width="100%" class="w-auto h-6">
  <path d="M190.372 29.813c-88.673 0-160.546 71.873-160.546 160.547 0 68.922 43.523 127.527 104.51 150.288l2.283-44.325c0-32.125-23.725-21.82-23.725-44.313 0-12.583.383-38.829.383-58.512 0-52.487 22.285-103.278 27.769-114.595 5.496-11.322 18.468-23.661 18.607-11.787 0 17.236.726 217.775.726 217.775h-.035l2.557 63.496c8.946 1.546 18.084 2.51 27.472 2.51a158.83 158.83 0 0033.474-3.567l5.438-105.033s-9.457-3.113-11.525-4.112c-20.042-8.831-34.606-34.845-34.606-68.585 0-36.82 28.553-68.539 56.171-68.8h.105c27.617.262 56.176 31.98 56.176 68.8 0 33.74-14.581 59.731-34.6 68.585-.151.069-11.607 4.218-11.607 4.218l4.949 95.156c56.804-24.725 96.562-81.295 96.562-147.208-.003-88.664-71.876-160.538-160.538-160.538z" />
  <path d="M206.662 153.285c.569-2.341 1.336-4.566 1.382-4.601.244-.883-.221-1.771-1.161-2.347-.906-.488-2.021-.232-2.533.552 0 0-1.092 1.749-2.684 4.328-1.302 2.225-3.219 5.78-4.52 10.207-1.139 3.88-2.486 9.045-3.091 14.813a69.37 69.37 0 00-.232 8.592c.232 3.212.721 5.96 1.65 9.097 3.137 8.981 5.576 17.649 14.337 26.2 2.776 2.858 5.624 4.799 7.669 6.228l.731.511c.441.291.871.559 1.29.791 1.719.918 2.881 1.242 3.09 1.289.86.221 1.743-.197 2.115-.883.337-.732.093-1.65-.628-2.242 0 0-.999-.859-2.277-2.486-.883-1-1.835-2.417-2.951-4.02-.778-1.162-1.708-2.44-2.556-3.695-4.275-6.518-6.739-15.615-10.144-24.934-.662-2.028-1.22-4.642-1.417-6.867a71.47 71.47 0 01-.406-7.343c-.094-5.333.139-9.911.604-13.623.558-4.199.977-7.342 1.732-9.567z" />
  <path d="M190.372 0C85.415 0 0 85.397 0 190.36 0 295.3 85.415 380.721 190.372 380.721c104.952 0 190.35-85.421 190.35-190.361C380.721 85.397 295.324 0 190.372 0zm0 366.523c-97.144 0-176.18-79.03-176.18-176.163 0-97.144 79.036-176.18 176.18-176.18 97.133 0 176.175 79.036 176.175 176.18-.001 97.133-79.043 176.163-176.175 176.163z" />
</svg>